# xmcd CD database file
#
# Track frame offsets:
#	150
#	11459
#	22468
#	44764
#	60748
#	75845
#	93220
#	113221
#	137017
#	153463
#
# Disc length: 2200 seconds
#
# Revision: 0
# Processed by: cddbd v1.5.2PL0 Copyright (c) Steve Scherf et al.
# Submitted via: CDex 1.70beta2
#
DISCID=7b08960a
DTITLE=Nightfish - Caught and released
DYEAR=1900
DGENRE=Jazz
TTITLE0=Rober Younger/Smokin in Bed
TTITLE1=Sammie Crutcher/Tell Me Baby
TTITLE2=Bill Shelton/Back In The Dog House
TTITLE3=Roger Younger and Pat McLaughlin/Bood Woman Bad
TTITLE4=Danny Rowland and Sammie Crutcher/Fresh Fishlicks
TTITLE5=Doc Focus Y Reginald Ashley/Boogie Woogie Country Girl
TTITLE6=James Moore/Got Love If You Want It
TTITLE7=Sammie Crutcher/White Lines
TTITLE8=Rober Younger/I Passed True Love By
TTITLE9=Bil Shelton/Back To Bed
EXTD=
EXTT0=
EXTT1=
EXTT2=
EXTT3=
EXTT4=
EXTT5=
EXTT6=
EXTT7=
EXTT8=
EXTT9=
PLAYORDER=
